<svg width="24" height="24" viewBox="0 0 24 24" fill="none" xmlns="http://www.w3.org/2000/svg">
<path d="M21.6551 18.1035H2.34484C2.15441 18.1035 2 17.949 2 17.7586V5.34484C2 5.15441 2.15441 5 2.34484 5H21.6552C21.8456 5 22 5.15441 22 5.34484V17.7586C22 17.9491 21.8455 18.1035 21.6551 18.1035Z" fill="#F5F5F5"/>
<path d="M22 6.00801H2V5.34484C2 5.15441 2.15441 5 2.34484 5H21.6552C21.8456 5 22 5.15441 22 5.34484L22 6.00801Z" fill="#FF4B55"/>
<path d="M22 9.03183H2V10.0398H22V9.03183Z" fill="#FF4B55"/>
<path d="M22 7.01584H2V8.02381H22V7.01584Z" fill="#FF4B55"/>
<path d="M22 12.0557H2.34484C2.15441 12.0557 2 11.9013 2 11.7109V11.0477H22V12.0557Z" fill="#FF4B55"/>
<path d="M22 15.0799H2V16.0878H22V15.0799Z" fill="#FF4B55"/>
<path d="M21.6551 18.1035H2.34484C2.15441 18.1035 2 17.949 2 17.7586V17.0955H22V17.7587C22 17.9491 21.8455 18.1035 21.6551 18.1035Z" fill="#FF4B55"/>
<path d="M22 13.0639H2V14.0718H22V13.0639Z" fill="#FF4B55"/>
<path d="M10.9655 5.00006H2.34484C2.15441 5.00006 2 5.15444 2 5.34486V11.7109C2 11.9013 2.15441 12.0557 2.34484 12.0557H10.9655C11.156 12.0557 11.3104 11.9013 11.3104 11.7109V5.34486C11.3103 5.15444 11.1559 5.00006 10.9655 5.00006Z" fill="#41479B"/>
<path d="M2.96832 5.79161L3.04464 6.02052L3.28593 6.02235C3.31718 6.02262 3.33011 6.06247 3.30499 6.08102L3.11089 6.22438L3.18371 6.45442C3.19316 6.48418 3.15921 6.50887 3.13378 6.49067L2.9375 6.3504L2.74121 6.49071C2.71578 6.50887 2.68191 6.48422 2.69128 6.45446L2.7641 6.22442L2.57 6.08106C2.54488 6.06247 2.55781 6.02266 2.58906 6.02239L2.83035 6.02055L2.90667 5.79165C2.91652 5.76196 2.95839 5.76196 2.96832 5.79161Z" fill="#F5F5F5"/>
<path d="M2.96832 6.98888L3.04464 7.21778L3.28593 7.21962C3.31718 7.21989 3.33011 7.25974 3.30499 7.27829L3.11089 7.42165L3.18371 7.65169C3.19316 7.68145 3.15921 7.70614 3.13378 7.68794L2.9375 7.54766L2.74121 7.68798C2.71578 7.70614 2.68191 7.68149 2.69128 7.65173L2.7641 7.42169L2.57 7.27833C2.54488 7.25974 2.55781 7.21993 2.58906 7.21966L2.83035 7.21782L2.90667 6.98892C2.91652 6.95927 2.95839 6.95927 2.96832 6.98888Z" fill="#F5F5F5"/>
<path d="M2.96832 8.18633L3.04464 8.41523L3.28593 8.41707C3.31718 8.41734 3.33011 8.45719 3.30499 8.47574L3.11089 8.6191L3.18371 8.84914C3.19316 8.87891 3.15921 8.9036 3.13378 8.88539L2.9375 8.74512L2.74121 8.88543C2.71578 8.9036 2.68191 8.87895 2.69128 8.84918L2.7641 8.61914L2.57 8.47578C2.54488 8.45719 2.55781 8.41738 2.58906 8.41711L2.83035 8.41527L2.90667 8.18637C2.91652 8.15672 2.95839 8.15672 2.96832 8.18633Z" fill="#F5F5F5"/>
<path d="M2.96832 9.38377L3.04464 9.61268L3.28593 9.61452C3.31718 9.61479 3.33011 9.65463 3.30499 9.67319L3.11089 9.81655L3.18371 10.0466C3.19316 10.0764 3.15921 10.101 3.13378 10.0828L2.9375 9.94256L2.74121 10.0829C2.71578 10.101 2.68191 10.0764 2.69128 10.0466L2.7641 9.81659L2.57 9.67323C2.54488 9.65463 2.55781 9.61483 2.58906 9.61455L2.83035 9.61272L2.90667 9.38381C2.91652 9.35412 2.95839 9.35412 2.96832 9.38377Z" fill="#F5F5F5"/>
<path d="M2.96832 10.5812L3.04464 10.8101L3.28593 10.8119C3.31718 10.8122 3.33011 10.8521 3.30499 10.8706L3.11089 11.014L3.18371 11.244C3.19316 11.2738 3.15921 11.2985 3.13378 11.2803L2.9375 11.14L2.74121 11.2803C2.71578 11.2985 2.68191 11.2738 2.69128 11.244L2.7641 11.014L2.57 10.8706C2.54488 10.8521 2.55781 10.8122 2.58906 10.812L2.83035 10.8101L2.90667 10.5812C2.91652 10.5515 2.95839 10.5515 2.96832 10.5812Z" fill="#F5F5F5"/>
<path d="M3.89773 6.37853L3.97406 6.60744L4.21534 6.60927C4.24659 6.60955 4.25952 6.64939 4.23441 6.66794L4.04031 6.8113L4.11312 7.04134C4.12257 7.07111 4.08863 7.09579 4.0632 7.07759L3.86691 6.93728L3.67062 7.07759C3.64519 7.09576 3.61132 7.07111 3.6207 7.04134L3.69351 6.8113L3.49941 6.66794C3.47429 6.64935 3.48722 6.60955 3.51847 6.60927L3.75976 6.60744L3.83609 6.37853C3.84589 6.34892 3.88784 6.34892 3.89773 6.37853Z" fill="#F5F5F5"/>
<path d="M3.89773 7.57601L3.97406 7.80491L4.21534 7.80675C4.24659 7.80702 4.25952 7.84686 4.23441 7.86542L4.04031 8.00877L4.11312 8.23881C4.12257 8.26858 4.08863 8.29326 4.0632 8.27506L3.86691 8.13475L3.67062 8.27506C3.64519 8.29322 3.61132 8.26862 3.6207 8.23881L3.69351 8.00877L3.49941 7.86542C3.47429 7.84682 3.48722 7.80702 3.51847 7.80675L3.75976 7.80491L3.83609 7.57601C3.84589 7.54636 3.88784 7.54636 3.89773 7.57601Z" fill="#F5F5F5"/>
<path d="M3.89773 8.77343L3.97406 9.00233L4.21534 9.00417C4.24659 9.00444 4.25952 9.04429 4.23441 9.06284L4.04031 9.2062L4.11312 9.43624C4.12257 9.466 4.08863 9.49069 4.0632 9.47249L3.86691 9.33218L3.67062 9.47249C3.64519 9.49065 3.61132 9.466 3.6207 9.43624L3.69351 9.2062L3.49941 9.06284C3.47429 9.04425 3.48722 9.00444 3.51847 9.00417L3.75976 9.00233L3.83609 8.77343C3.84589 8.74378 3.88784 8.74378 3.89773 8.77343Z" fill="#F5F5F5"/>
<path d="M3.89773 9.97088L3.97406 10.1998L4.21534 10.2016C4.24659 10.2019 4.25952 10.2417 4.23441 10.2603L4.04031 10.4036L4.11312 10.6337C4.12257 10.6635 4.08863 10.6881 4.0632 10.6699L3.86691 10.5296L3.67062 10.6699C3.64519 10.6881 3.61132 10.6635 3.6207 10.6337L3.69351 10.4036L3.49941 10.2603C3.47429 10.2417 3.48722 10.2019 3.51847 10.2016L3.75976 10.1998L3.83609 9.97088C3.84589 9.94127 3.88784 9.94127 3.89773 9.97088Z" fill="#F5F5F5"/>
<path d="M4.82714 5.79149L4.90347 6.0204L5.14476 6.02223C5.17601 6.02251 5.18894 6.06235 5.16382 6.0809L4.96972 6.22426L5.04254 6.4543C5.05199 6.48406 5.01804 6.50875 4.99261 6.49055L4.79632 6.35024L4.60003 6.49055C4.5746 6.50871 4.54074 6.48406 4.55011 6.4543L4.62292 6.22426L4.42882 6.0809C4.4037 6.06231 4.41663 6.02251 4.44788 6.02223L4.68917 6.0204L4.7655 5.79149C4.77535 5.76184 4.81726 5.76184 4.82714 5.79149Z" fill="#F5F5F5"/>
<path d="M4.82714 6.98888L4.90347 7.21779L5.14476 7.21962C5.17601 7.2199 5.18894 7.25974 5.16382 7.2783L4.96972 7.42165L5.04254 7.65169C5.05199 7.68146 5.01804 7.70615 4.99261 7.68794L4.79632 7.54763L4.60003 7.68794C4.5746 7.70611 4.54074 7.68146 4.55011 7.65169L4.62292 7.42165L4.42882 7.2783C4.4037 7.2597 4.41663 7.2199 4.44788 7.21962L4.68917 7.21779L4.7655 6.98888C4.77535 6.95927 4.81726 6.95927 4.82714 6.98888Z" fill="#F5F5F5"/>
<path d="M4.82714 8.18633L4.90347 8.41524L5.14476 8.41708C5.17601 8.41735 5.18894 8.45719 5.16382 8.47575L4.96972 8.61911L5.04254 8.84915C5.05199 8.87892 5.01804 8.90361 4.99261 8.8854L4.79632 8.74509L4.60003 8.8854C4.5746 8.90357 4.54074 8.87892 4.55011 8.84915L4.62292 8.61911L4.42882 8.47575C4.4037 8.45716 4.41663 8.41735 4.44788 8.41708L4.68917 8.41524L4.7655 8.18633C4.77535 8.15672 4.81726 8.15672 4.82714 8.18633Z" fill="#F5F5F5"/>
<path d="M4.82714 9.38378L4.90347 9.61268L5.14476 9.61452C5.17601 9.61479 5.18894 9.65464 5.16382 9.67319L4.96972 9.81655L5.04254 10.0466C5.05199 10.0764 5.01804 10.101 4.99261 10.0828L4.79632 9.94253L4.60003 10.0828C4.5746 10.101 4.54074 10.0764 4.55011 10.0466L4.62292 9.81655L4.42882 9.67319C4.4037 9.6546 4.41663 9.61479 4.44788 9.61452L4.68917 9.61268L4.7655 9.38378C4.77535 9.35413 4.81726 9.35413 4.82714 9.38378Z" fill="#F5F5F5"/>
<path d="M4.82714 10.5812L4.90347 10.8101L5.14476 10.8119C5.17601 10.8122 5.18894 10.8521 5.16382 10.8706L4.96972 11.014L5.04254 11.244C5.05199 11.2738 5.01804 11.2985 4.99261 11.2803L4.79632 11.1399L4.60003 11.2803C4.5746 11.2984 4.54074 11.2738 4.55011 11.244L4.62292 11.014L4.42882 10.8706C4.4037 10.852 4.41663 10.8122 4.44788 10.8119L4.68917 10.8101L4.7655 10.5812C4.77535 10.5515 4.81726 10.5515 4.82714 10.5812Z" fill="#F5F5F5"/>
<path d="M5.75659 6.37853L5.83292 6.60744L6.07421 6.60927C6.10546 6.60955 6.11839 6.64939 6.09327 6.66794L5.89917 6.8113L5.97198 7.04134C5.98144 7.07111 5.94749 7.09579 5.92206 7.07759L5.72577 6.93728L5.52948 7.07759C5.50405 7.09576 5.47019 7.07111 5.47956 7.04134L5.55237 6.8113L5.35827 6.66794C5.33316 6.64935 5.34609 6.60955 5.37734 6.60927L5.61862 6.60744L5.69495 6.37853C5.70476 6.34892 5.74671 6.34892 5.75659 6.37853Z" fill="#F5F5F5"/>
<path d="M5.75659 7.57601L5.83292 7.80491L6.07421 7.80675C6.10546 7.80702 6.11839 7.84686 6.09327 7.86542L5.89917 8.00877L5.97198 8.23881C5.98144 8.26858 5.94749 8.29326 5.92206 8.27506L5.72577 8.13475L5.52948 8.27506C5.50405 8.29322 5.47019 8.26862 5.47956 8.23881L5.55237 8.00877L5.35827 7.86542C5.33316 7.84682 5.34609 7.80702 5.37734 7.80675L5.61862 7.80491L5.69495 7.57601C5.70476 7.54636 5.74671 7.54636 5.75659 7.57601Z" fill="#F5F5F5"/>
<path d="M5.75659 8.77343L5.83292 9.00233L6.07421 9.00417C6.10546 9.00444 6.11839 9.04429 6.09327 9.06284L5.89917 9.2062L5.97198 9.43624C5.98144 9.466 5.94749 9.49069 5.92206 9.47249L5.72577 9.33218L5.52948 9.47249C5.50405 9.49065 5.47019 9.466 5.47956 9.43624L5.55237 9.2062L5.35827 9.06284C5.33316 9.04425 5.34609 9.00444 5.37734 9.00417L5.61862 9.00233L5.69495 8.77343C5.70476 8.74378 5.74671 8.74378 5.75659 8.77343Z" fill="#F5F5F5"/>
<path d="M5.75659 9.97088L5.83292 10.1998L6.07421 10.2016C6.10546 10.2019 6.11839 10.2417 6.09327 10.2603L5.89917 10.4036L5.97198 10.6337C5.98144 10.6635 5.94749 10.6881 5.92206 10.6699L5.72577 10.5296L5.52948 10.6699C5.50405 10.6881 5.47019 10.6635 5.47956 10.6337L5.55237 10.4036L5.35827 10.2603C5.33316 10.2417 5.34609 10.2019 5.37734 10.2016L5.61862 10.1998L5.69495 9.97088C5.70476 9.94127 5.74671 9.94127 5.75659 9.97088Z" fill="#F5F5F5"/>
<path d="M6.686 5.79149L6.76233 6.0204L7.00362 6.02223C7.03487 6.02251 7.0478 6.06235 7.02268 6.0809L6.82858 6.22426L6.90139 6.4543C6.91085 6.48406 6.8769 6.50875 6.85147 6.49055L6.65514 6.35024L6.45886 6.49055C6.43343 6.50871 6.39956 6.48406 6.40894 6.4543L6.48175 6.22426L6.28765 6.0809C6.26253 6.06231 6.27546 6.02251 6.30671 6.02223L6.548 6.0204L6.62432 5.79149C6.63421 5.76184 6.67612 5.76184 6.686 5.79149Z" fill="#F5F5F5"/>
<path d="M6.686 6.98888L6.76233 7.21779L7.00362 7.21962C7.03487 7.2199 7.0478 7.25974 7.02268 7.2783L6.82858 7.42165L6.90139 7.65169C6.91085 7.68146 6.8769 7.70615 6.85147 7.68794L6.65514 7.54763L6.45886 7.68794C6.43343 7.70611 6.39956 7.68146 6.40894 7.65169L6.48175 7.42165L6.28765 7.2783C6.26253 7.2597 6.27546 7.2199 6.30671 7.21962L6.548 7.21779L6.62432 6.98888C6.63421 6.95927 6.67612 6.95927 6.686 6.98888Z" fill="#F5F5F5"/>
<path d="M6.686 8.18633L6.76233 8.41524L7.00362 8.41708C7.03487 8.41735 7.0478 8.45719 7.02268 8.47575L6.82858 8.61911L6.90139 8.84915C6.91085 8.87892 6.8769 8.90361 6.85147 8.8854L6.65514 8.74509L6.45886 8.8854C6.43343 8.90357 6.39956 8.87892 6.40894 8.84915L6.48175 8.61911L6.28765 8.47575C6.26253 8.45716 6.27546 8.41735 6.30671 8.41708L6.548 8.41524L6.62432 8.18633C6.63421 8.15672 6.67612 8.15672 6.686 8.18633Z" fill="#F5F5F5"/>
<path d="M6.686 9.38378L6.76233 9.61268L7.00362 9.61452C7.03487 9.61479 7.0478 9.65464 7.02268 9.67319L6.82858 9.81655L6.90139 10.0466C6.91085 10.0764 6.8769 10.101 6.85147 10.0828L6.65514 9.94253L6.45886 10.0828C6.43343 10.101 6.39956 10.0764 6.40894 10.0466L6.48175 9.81655L6.28765 9.67319C6.26253 9.6546 6.27546 9.61479 6.30671 9.61452L6.548 9.61268L6.62432 9.38378C6.63421 9.35413 6.67612 9.35413 6.686 9.38378Z" fill="#F5F5F5"/>
<path d="M6.686 10.5812L6.76233 10.8101L7.00362 10.8119C7.03487 10.8122 7.0478 10.8521 7.02268 10.8706L6.82858 11.014L6.90139 11.244C6.91085 11.2738 6.8769 11.2985 6.85147 11.2803L6.65514 11.1399L6.45886 11.2803C6.43343 11.2984 6.39956 11.2738 6.40894 11.244L6.48175 11.014L6.28765 10.8706C6.26253 10.852 6.27546 10.8122 6.30671 10.8119L6.548 10.8101L6.62432 10.5812C6.63421 10.5515 6.67612 10.5515 6.686 10.5812Z" fill="#F5F5F5"/>
<path d="M7.61542 6.37853L7.69175 6.60744L7.93304 6.60927C7.96429 6.60955 7.97722 6.64939 7.9521 6.66794L7.758 6.8113L7.83081 7.04134C7.84027 7.07111 7.80632 7.09579 7.78089 7.07759L7.5846 6.93728L7.38831 7.07759C7.36288 7.09576 7.32901 7.07111 7.33839 7.04134L7.4112 6.8113L7.2171 6.66794C7.19198 6.64935 7.20491 6.60955 7.23616 6.60927L7.47745 6.60744L7.55378 6.37853C7.56366 6.34892 7.60554 6.34892 7.61542 6.37853Z" fill="#F5F5F5"/>
<path d="M7.61542 7.57601L7.69175 7.80491L7.93304 7.80675C7.96429 7.80702 7.97722 7.84686 7.9521 7.86542L7.758 8.00877L7.83081 8.23881C7.84027 8.26858 7.80632 8.29326 7.78089 8.27506L7.5846 8.13475L7.38831 8.27506C7.36288 8.29322 7.32901 8.26862 7.33839 8.23881L7.4112 8.00877L7.2171 7.86542C7.19198 7.84682 7.20491 7.80702 7.23616 7.80675L7.47745 7.80491L7.55378 7.57601C7.56366 7.54636 7.60554 7.54636 7.61542 7.57601Z" fill="#F5F5F5"/>
<path d="M7.61542 8.77343L7.69175 9.00233L7.93304 9.00417C7.96429 9.00444 7.97722 9.04429 7.9521 9.06284L7.758 9.2062L7.83081 9.43624C7.84027 9.466 7.80632 9.49069 7.78089 9.47249L7.5846 9.33218L7.38831 9.47249C7.36288 9.49065 7.32901 9.466 7.33839 9.43624L7.4112 9.2062L7.2171 9.06284C7.19198 9.04425 7.20491 9.00444 7.23616 9.00417L7.47745 9.00233L7.55378 8.77343C7.56366 8.74378 7.60554 8.74378 7.61542 8.77343Z" fill="#F5F5F5"/>
<path d="M7.61542 9.97088L7.69175 10.1998L7.93304 10.2016C7.96429 10.2019 7.97722 10.2417 7.9521 10.2603L7.758 10.4036L7.83081 10.6337C7.84027 10.6635 7.80632 10.6881 7.78089 10.6699L7.5846 10.5296L7.38831 10.6699C7.36288 10.6881 7.32901 10.6635 7.33839 10.6337L7.4112 10.4036L7.2171 10.2603C7.19198 10.2417 7.20491 10.2019 7.23616 10.2016L7.47745 10.1998L7.55378 9.97088C7.56366 9.94127 7.60554 9.94127 7.61542 9.97088Z" fill="#F5F5F5"/>
<path d="M8.54487 5.79149L8.6212 6.0204L8.86249 6.02223C8.89374 6.02251 8.90667 6.06235 8.88155 6.0809L8.68745 6.22426L8.76026 6.4543C8.76972 6.48406 8.73577 6.50875 8.71034 6.49055L8.51405 6.35024L8.31776 6.49055C8.29233 6.50871 8.25846 6.48406 8.26784 6.4543L8.34065 6.22426L8.14655 6.0809C8.12143 6.06231 8.13436 6.02251 8.16561 6.02223L8.4069 6.0204L8.48323 5.79149C8.49304 5.76184 8.53499 5.76184 8.54487 5.79149Z" fill="#F5F5F5"/>
<path d="M8.54487 6.98888L8.6212 7.21779L8.86249 7.21962C8.89374 7.2199 8.90667 7.25974 8.88155 7.2783L8.68745 7.42165L8.76026 7.65169C8.76972 7.68146 8.73577 7.70615 8.71034 7.68794L8.51405 7.54763L8.31776 7.68794C8.29233 7.70611 8.25846 7.68146 8.26784 7.65169L8.34065 7.42165L8.14655 7.2783C8.12143 7.2597 8.13436 7.2199 8.16561 7.21962L8.4069 7.21779L8.48323 6.98888C8.49304 6.95927 8.53499 6.95927 8.54487 6.98888Z" fill="#F5F5F5"/>
<path d="M8.54487 8.18633L8.6212 8.41524L8.86249 8.41708C8.89374 8.41735 8.90667 8.45719 8.88155 8.47575L8.68745 8.61911L8.76026 8.84915C8.76972 8.87892 8.73577 8.90361 8.71034 8.8854L8.51405 8.74509L8.31776 8.8854C8.29233 8.90357 8.25846 8.87892 8.26784 8.84915L8.34065 8.61911L8.14655 8.47575C8.12143 8.45716 8.13436 8.41735 8.16561 8.41708L8.4069 8.41524L8.48323 8.18633C8.49304 8.15672 8.53499 8.15672 8.54487 8.18633Z" fill="#F5F5F5"/>
<path d="M8.54487 9.38378L8.6212 9.61268L8.86249 9.61452C8.89374 9.61479 8.90667 9.65464 8.88155 9.67319L8.68745 9.81655L8.76026 10.0466C8.76972 10.0764 8.73577 10.101 8.71034 10.0828L8.51405 9.94253L8.31776 10.0828C8.29233 10.101 8.25846 10.0764 8.26784 10.0466L8.34065 9.81655L8.14655 9.67319C8.12143 9.6546 8.13436 9.61479 8.16561 9.61452L8.4069 9.61268L8.48323 9.38378C8.49304 9.35413 8.53499 9.35413 8.54487 9.38378Z" fill="#F5F5F5"/>
<path d="M8.54487 10.5812L8.6212 10.8101L8.86249 10.8119C8.89374 10.8122 8.90667 10.8521 8.88155 10.8706L8.68745 11.014L8.76026 11.244C8.76972 11.2738 8.73577 11.2985 8.71034 11.2803L8.51405 11.1399L8.31776 11.2803C8.29233 11.2984 8.25846 11.2738 8.26784 11.244L8.34065 11.014L8.14655 10.8706C8.12143 10.852 8.13436 10.8122 8.16561 10.8119L8.4069 10.8101L8.48323 10.5812C8.49304 10.5515 8.53499 10.5515 8.54487 10.5812Z" fill="#F5F5F5"/>
<path d="M9.47428 6.37853L9.55061 6.60744L9.7919 6.60927C9.82315 6.60955 9.83607 6.64939 9.81096 6.66794L9.61686 6.8113L9.68967 7.04134C9.69912 7.07111 9.66518 7.09579 9.63975 7.07759L9.44346 6.93728L9.24717 7.07759C9.22174 7.09576 9.18788 7.07111 9.19725 7.04134L9.27006 6.8113L9.07596 6.66794C9.05085 6.64935 9.06377 6.60955 9.09502 6.60927L9.33631 6.60744L9.41264 6.37853C9.42248 6.34892 9.46444 6.34892 9.47428 6.37853Z" fill="#F5F5F5"/>
<path d="M9.47428 7.57601L9.55061 7.80491L9.7919 7.80675C9.82315 7.80702 9.83607 7.84686 9.81096 7.86542L9.61686 8.00877L9.68967 8.23881C9.69912 8.26858 9.66518 8.29326 9.63975 8.27506L9.44346 8.13475L9.24717 8.27506C9.22174 8.29322 9.18788 8.26862 9.19725 8.23881L9.27006 8.00877L9.07596 7.86542C9.05085 7.84682 9.06377 7.80702 9.09502 7.80675L9.33631 7.80491L9.41264 7.57601C9.42248 7.54636 9.46444 7.54636 9.47428 7.57601Z" fill="#F5F5F5"/>
<path d="M9.47428 8.77343L9.55061 9.00233L9.7919 9.00417C9.82315 9.00444 9.83607 9.04429 9.81096 9.06284L9.61686 9.2062L9.68967 9.43624C9.69912 9.466 9.66518 9.49069 9.63975 9.47249L9.44346 9.33218L9.24717 9.47249C9.22174 9.49065 9.18788 9.466 9.19725 9.43624L9.27006 9.2062L9.07596 9.06284C9.05085 9.04425 9.06377 9.00444 9.09502 9.00417L9.33631 9.00233L9.41264 8.77343C9.42248 8.74378 9.46444 8.74378 9.47428 8.77343Z" fill="#F5F5F5"/>
<path d="M9.47428 9.97088L9.55061 10.1998L9.7919 10.2016C9.82315 10.2019 9.83607 10.2417 9.81096 10.2603L9.61686 10.4036L9.68967 10.6337C9.69912 10.6635 9.66518 10.6881 9.63975 10.6699L9.44346 10.5296L9.24717 10.6699C9.22174 10.6881 9.18788 10.6635 9.19725 10.6337L9.27006 10.4036L9.07596 10.2603C9.05085 10.2417 9.06377 10.2019 9.09502 10.2016L9.33631 10.1998L9.41264 9.97088C9.42248 9.94127 9.46444 9.94127 9.47428 9.97088Z" fill="#F5F5F5"/>
<path d="M10.4037 5.79149L10.4801 6.0204L10.7214 6.02223C10.7526 6.02251 10.7655 6.06235 10.7404 6.0809L10.5463 6.22426L10.6191 6.4543C10.6286 6.48406 10.5946 6.50875 10.5692 6.49055L10.3729 6.35024L10.1766 6.49055C10.1512 6.50871 10.1173 6.48406 10.1267 6.4543L10.1995 6.22426L10.0054 6.0809C9.9803 6.06231 9.99323 6.02251 10.0245 6.02223L10.2658 6.0204L10.3421 5.79149C10.3519 5.76184 10.3938 5.76184 10.4037 5.79149Z" fill="#F5F5F5"/>
<path d="M10.4037 6.98888L10.4801 7.21779L10.7214 7.21962C10.7526 7.2199 10.7655 7.25974 10.7404 7.2783L10.5463 7.42165L10.6191 7.65169C10.6286 7.68146 10.5946 7.70615 10.5692 7.68794L10.3729 7.54763L10.1766 7.68794C10.1512 7.70611 10.1173 7.68146 10.1267 7.65169L10.1995 7.42165L10.0054 7.2783C9.9803 7.2597 9.99323 7.2199 10.0245 7.21962L10.2658 7.21779L10.3421 6.98888C10.3519 6.95927 10.3938 6.95927 10.4037 6.98888Z" fill="#F5F5F5"/>
<path d="M10.4037 8.18633L10.4801 8.41524L10.7214 8.41708C10.7526 8.41735 10.7655 8.45719 10.7404 8.47575L10.5463 8.61911L10.6191 8.84915C10.6286 8.87892 10.5946 8.90361 10.5692 8.8854L10.3729 8.74509L10.1766 8.8854C10.1512 8.90357 10.1173 8.87892 10.1267 8.84915L10.1995 8.61911L10.0054 8.47575C9.9803 8.45716 9.99323 8.41735 10.0245 8.41708L10.2658 8.41524L10.3421 8.18633C10.3519 8.15672 10.3938 8.15672 10.4037 8.18633Z" fill="#F5F5F5"/>
<path d="M10.4037 9.38378L10.4801 9.61268L10.7214 9.61452C10.7526 9.61479 10.7655 9.65464 10.7404 9.67319L10.5463 9.81655L10.6191 10.0466C10.6286 10.0764 10.5946 10.101 10.5692 10.0828L10.3729 9.94253L10.1766 10.0828C10.1512 10.101 10.1173 10.0764 10.1267 10.0466L10.1995 9.81655L10.0054 9.67319C9.9803 9.6546 9.99323 9.61479 10.0245 9.61452L10.2658 9.61268L10.3421 9.38378C10.3519 9.35413 10.3938 9.35413 10.4037 9.38378Z" fill="#F5F5F5"/>
<path d="M10.4037 10.5812L10.4801 10.8101L10.7214 10.8119C10.7526 10.8122 10.7655 10.8521 10.7404 10.8706L10.5463 11.014L10.6191 11.244C10.6286 11.2738 10.5946 11.2985 10.5692 11.2803L10.3729 11.1399L10.1766 11.2803C10.1512 11.2984 10.1173 11.2738 10.1267 11.244L10.1995 11.014L10.0054 10.8706C9.9803 10.852 9.99323 10.8122 10.0245 10.8119L10.2658 10.8101L10.3421 10.5812C10.3519 10.5515 10.3938 10.5515 10.4037 10.5812Z" fill="#F5F5F5"/>
</svg>
