<svg width="24" height="24" viewBox="0 0 24 24" fill="none" xmlns="http://www.w3.org/2000/svg">
<path d="M21.6551 18.1035H2.34484C2.15441 18.1035 2 17.949 2 17.7586V5.34484C2 5.15441 2.15441 5 2.34484 5H21.6552C21.8456 5 22 5.15441 22 5.34484V17.7586C22 17.9491 21.8455 18.1035 21.6551 18.1035Z" fill="#73AF00"/>
<path d="M11.8207 6.83332L4.5529 11.2572C4.33216 11.3915 4.33216 11.7119 4.5529 11.8463L11.8207 16.2702C11.9308 16.3372 12.0691 16.3372 12.1793 16.2702L19.4471 11.8463C19.6679 11.712 19.6679 11.3916 19.4471 11.2572L12.1793 6.83332C12.0692 6.76629 11.9308 6.76629 11.8207 6.83332Z" fill="#FFE15A"/>
<path d="M12 14.3103C13.5235 14.3103 14.7586 13.0753 14.7586 11.5517C14.7586 10.0282 13.5235 8.79315 12 8.79315C10.4765 8.79315 9.24139 10.0282 9.24139 11.5517C9.24139 13.0753 10.4765 14.3103 12 14.3103Z" fill="#41479B"/>
<path d="M9.63282 10.1405C9.50267 10.3584 9.40216 10.5952 9.33575 10.8466C10.865 10.7316 13.1272 11.1594 14.5671 12.5565C14.6611 12.3166 14.7231 12.0611 14.7464 11.794C13.2596 10.5427 11.2042 10.0977 9.63282 10.1405Z" fill="#F5F5F5"/>
<path d="M12.1142 12.4931L12.1877 12.7133L12.4198 12.7151C12.4499 12.7154 12.4623 12.7537 12.4382 12.7716L12.2514 12.9095L12.3215 13.1308C12.3305 13.1595 12.2979 13.1832 12.2735 13.1657L12.0846 13.0307L11.8957 13.1657C11.8713 13.1832 11.8387 13.1595 11.8477 13.1308L11.9178 12.9095L11.731 12.7716C11.7068 12.7537 11.7193 12.7154 11.7493 12.7151L11.9815 12.7133L12.0549 12.4931C12.0644 12.4646 12.1047 12.4646 12.1142 12.4931Z" fill="#F5F5F5"/>
<path d="M13.0165 13.0628L13.0481 13.1576L13.148 13.1584C13.161 13.1584 13.1664 13.175 13.1559 13.1827L13.0755 13.242L13.1057 13.3373C13.1096 13.3496 13.0955 13.3598 13.085 13.3523L13.0037 13.2942L12.9224 13.3523C12.9119 13.3598 12.8978 13.3496 12.9018 13.3373L12.9319 13.242L12.8515 13.1827C12.8411 13.175 12.8464 13.1585 12.8594 13.1584L12.9593 13.1576L12.9909 13.0628C12.995 13.0505 13.0124 13.0505 13.0165 13.0628Z" fill="#F5F5F5"/>
<path d="M11.7241 12.0747L11.7557 12.1695L11.8556 12.1703C11.8686 12.1704 11.874 12.1869 11.8635 12.1946L11.7831 12.2539L11.8133 12.3492C11.8172 12.3615 11.8031 12.3717 11.7926 12.3642L11.7113 12.3061L11.63 12.3642C11.6195 12.3717 11.6055 12.3615 11.6094 12.3492L11.6395 12.2539L11.5591 12.1946C11.5487 12.1869 11.554 12.1704 11.567 12.1703L11.6669 12.1695L11.6985 12.0747C11.7026 12.0625 11.72 12.0625 11.7241 12.0747Z" fill="#F5F5F5"/>
<path d="M9.9738 11.9598L10.0054 12.0546L10.1053 12.0554C10.1183 12.0555 10.1236 12.072 10.1132 12.0797L10.0328 12.139L10.0629 12.2343C10.0668 12.2466 10.0528 12.2568 10.0423 12.2493L9.96099 12.1912L9.8797 12.2493C9.8692 12.2568 9.85513 12.2466 9.85904 12.2343L9.88916 12.139L9.80877 12.0797C9.79838 12.072 9.80373 12.0555 9.81666 12.0554L9.91658 12.0546L9.94818 11.9598C9.95236 11.9476 9.9697 11.9476 9.9738 11.9598Z" fill="#F5F5F5"/>
<path d="M11.438 13.0301L11.4696 13.1249L11.5695 13.1257C11.5825 13.1257 11.5879 13.1423 11.5774 13.1499L11.497 13.2093L11.5272 13.3046C11.5311 13.3169 11.517 13.3271 11.5065 13.3196L11.4252 13.2615L11.3439 13.3196C11.3334 13.3271 11.3193 13.3169 11.3232 13.3046L11.3534 13.2093L11.273 13.1499C11.2626 13.1423 11.2679 13.1258 11.2809 13.1257L11.3808 13.1249L11.4124 13.0301C11.4166 13.0179 11.434 13.0179 11.438 13.0301Z" fill="#F5F5F5"/>
<path d="M10.6324 11.8937L10.6582 11.9712L10.74 11.9719C10.7505 11.9719 10.7549 11.9855 10.7464 11.9917L10.6807 12.0403L10.7054 12.1182C10.7086 12.1282 10.6971 12.1366 10.6884 12.1304L10.622 12.0829L10.5555 12.1304C10.5468 12.1366 10.5354 12.1282 10.5386 12.1182L10.5632 12.0403L10.4975 11.9917C10.489 11.9855 10.4933 11.9719 10.5039 11.9719L10.5857 11.9712L10.6115 11.8937C10.6148 11.8837 10.629 11.8837 10.6324 11.8937Z" fill="#F5F5F5"/>
<path d="M13.0867 10.2936L13.119 10.3906L13.2212 10.3914C13.2344 10.3915 13.2399 10.4084 13.2292 10.4162L13.1471 10.4769L13.1779 10.5744C13.1819 10.587 13.1675 10.5974 13.1567 10.5897L13.0736 10.5303L12.9904 10.5897C12.9796 10.5975 12.9653 10.587 12.9693 10.5744L13.0001 10.4769L12.9179 10.4162C12.9072 10.4084 12.9128 10.3915 12.926 10.3914L13.0281 10.3906L13.0605 10.2936C13.0647 10.2811 13.0825 10.2811 13.0867 10.2936Z" fill="#F5F5F5"/>
<path d="M10.0864 11.4195L10.1123 11.497L10.194 11.4977C10.2045 11.4978 10.2089 11.5113 10.2005 11.5176L10.1347 11.5661L10.1594 11.644C10.1626 11.6541 10.1511 11.6624 10.1424 11.6563L10.076 11.6088L10.0095 11.6563C10.0008 11.6624 9.9894 11.6541 9.99256 11.644L10.0172 11.5661L9.95147 11.5176C9.94299 11.5113 9.94733 11.4978 9.95795 11.4977L10.0397 11.497L10.0655 11.4195C10.0689 11.4095 10.083 11.4095 10.0864 11.4195Z" fill="#F5F5F5"/>
<path d="M10.4809 12.5119L10.5201 12.6293L10.6438 12.6303C10.6598 12.6304 10.6665 12.6508 10.6536 12.6604L10.554 12.7339L10.5913 12.8518C10.5962 12.8671 10.5788 12.8798 10.5658 12.8704L10.4651 12.7985L10.3644 12.8704C10.3513 12.8797 10.3339 12.8671 10.3388 12.8518L10.3761 12.7339L10.2765 12.6604C10.2636 12.6508 10.2703 12.6304 10.2863 12.6303L10.4101 12.6293L10.4492 12.5119C10.4544 12.4968 10.4759 12.4968 10.4809 12.5119Z" fill="#F5F5F5"/>
<path d="M13.5196 13.0874L13.5442 13.1613L13.6221 13.1619C13.6322 13.162 13.6363 13.1748 13.6283 13.1808L13.5656 13.227L13.5891 13.3013C13.5922 13.3109 13.5812 13.3188 13.573 13.3129L13.5097 13.2677L13.4463 13.3129C13.4381 13.3188 13.4272 13.3109 13.4302 13.3013L13.4537 13.227L13.391 13.1808C13.383 13.1748 13.3871 13.162 13.3972 13.1619L13.4751 13.1613L13.4997 13.0874C13.5029 13.0779 13.5165 13.0779 13.5196 13.0874Z" fill="#F5F5F5"/>
<path d="M13.7921 12.5238L13.8237 12.6186L13.9236 12.6193C13.9365 12.6194 13.9419 12.6359 13.9315 12.6436L13.8511 12.703L13.8812 12.7982C13.8851 12.8106 13.8711 12.8208 13.8605 12.8132L13.7792 12.7552L13.6979 12.8132C13.6874 12.8208 13.6734 12.8106 13.6773 12.7982L13.7074 12.703L13.627 12.6436C13.6166 12.636 13.622 12.6195 13.6349 12.6193L13.7348 12.6186L13.7664 12.5238C13.7706 12.5115 13.788 12.5115 13.7921 12.5238Z" fill="#F5F5F5"/>
</svg>
