<svg width="24" height="24" viewBox="0 0 24 24" fill="none" xmlns="http://www.w3.org/2000/svg">
<path d="M10.3544 16.7031L2 16.7061V16.686C2 16.6749 2.01332 16.6032 2.02961 16.5266C2.04589 16.4501 2.07121 16.3283 2.08587 16.256C2.10053 16.1837 2.12559 16.0608 2.14157 15.983C2.15754 15.9051 2.18408 15.7754 2.20055 15.6948C2.21701 15.6141 2.2428 15.4867 2.25786 15.4117C2.27292 15.3366 2.29806 15.2137 2.31373 15.1387C2.3294 15.0636 2.35611 14.9339 2.3731 14.8505C2.39008 14.7671 2.41589 14.6397 2.43046 14.5674C2.44503 14.4951 2.46819 14.3836 2.48192 14.3197C2.49565 14.2557 2.51315 14.1693 2.52081 14.1275C2.52847 14.0858 2.55327 13.963 2.57591 13.8545C2.59856 13.7461 2.62355 13.6232 2.63146 13.5815C2.63937 13.5398 2.66448 13.417 2.68726 13.3085C2.71004 13.2001 2.73507 13.0772 2.74288 13.0355C2.75068 12.9938 2.77585 12.871 2.7988 12.7625C2.82175 12.6541 2.84652 12.5335 2.85384 12.4946C2.86117 12.4557 2.88123 12.3556 2.89842 12.2721C2.91562 12.1887 2.94815 12.0317 2.97073 11.9233C2.9933 11.8149 3.03191 11.626 3.05652 11.5037C3.08114 11.3813 3.11055 11.2357 3.12189 11.1801C3.13322 11.1245 3.15372 11.0244 3.16744 10.9577C3.18116 10.8909 3.20607 10.7704 3.2228 10.6897C3.23953 10.6091 3.26675 10.4771 3.28328 10.3965C3.29982 10.3159 3.32531 10.1907 3.33992 10.1184C3.35453 10.0462 3.37946 9.92557 3.39533 9.8505C3.41119 9.77542 3.43848 9.64347 3.45597 9.55727C3.47346 9.47107 3.50276 9.33912 3.52108 9.26405C3.5394 9.18897 3.5653 9.09797 3.57863 9.06182C3.59197 9.02568 3.62878 8.94732 3.66044 8.88769L3.71801 8.77928L3.77035 8.71075C3.79913 8.67305 3.85052 8.61348 3.88455 8.57837C3.91857 8.54327 3.97599 8.49044 4.01213 8.46098C4.04828 8.43152 4.10061 8.39176 4.12841 8.37263C4.15622 8.35349 4.21082 8.32 4.24975 8.29819C4.28868 8.27638 4.34328 8.24783 4.37108 8.23473C4.39889 8.22164 4.45576 8.19774 4.49747 8.18162C4.53918 8.1655 4.61881 8.13849 4.67442 8.12159C4.73003 8.10469 4.83442 8.07922 4.90639 8.06498C4.97837 8.05075 5.09212 8.03174 5.15918 8.02273L5.28109 8.00636L13.6405 8.00318L22 8V8.02009C22 8.03115 21.9866 8.10284 21.9702 8.17942C21.9538 8.25599 21.9264 8.3869 21.9093 8.47032C21.8922 8.55373 21.8673 8.67431 21.8539 8.73826C21.8405 8.80222 21.8152 8.92507 21.7976 9.01127C21.78 9.09747 21.7529 9.22942 21.7374 9.30449C21.7219 9.37957 21.6968 9.50242 21.6817 9.5775C21.6665 9.65257 21.6413 9.77542 21.6256 9.8505C21.6099 9.92557 21.5856 10.0439 21.5716 10.1134C21.5575 10.1829 21.5321 10.308 21.5151 10.3914C21.4981 10.4749 21.4708 10.6068 21.4544 10.6847C21.438 10.7625 21.413 10.8831 21.3989 10.9526C21.3848 11.0221 21.3593 11.1473 21.3424 11.2307C21.3255 11.3141 21.2982 11.4461 21.2818 11.5239C21.2654 11.6018 21.241 11.7201 21.2275 11.7868C21.2141 11.8535 21.1888 11.9787 21.1713 12.0649C21.1538 12.1511 21.1283 12.2762 21.1146 12.3429C21.1009 12.4096 21.0765 12.528 21.0603 12.6058C21.0441 12.6837 21.0165 12.8179 20.9988 12.9041C20.9812 12.9903 20.956 13.1131 20.9428 13.1771C20.9296 13.241 20.9048 13.3616 20.8878 13.445C20.8708 13.5285 20.8438 13.6604 20.8277 13.7383C20.8116 13.8161 20.7864 13.939 20.7717 14.0113C20.757 14.0836 20.7314 14.2087 20.7148 14.2893C20.6982 14.37 20.6712 14.5019 20.6547 14.5826C20.6382 14.6632 20.6134 14.7838 20.5997 14.8505C20.586 14.9172 20.5609 15.0401 20.5439 15.1235C20.527 15.2069 20.4994 15.3384 20.4827 15.4156L20.4522 15.5561L20.416 15.6532C20.396 15.7067 20.366 15.7777 20.3493 15.8111C20.3326 15.8444 20.2986 15.9033 20.2737 15.9419C20.2488 15.9805 20.2142 16.0299 20.1966 16.0518C20.1791 16.0736 20.1264 16.13 20.0795 16.1771L19.9943 16.2627L19.9122 16.321C19.8671 16.3531 19.8185 16.3857 19.8042 16.3935C19.7899 16.4013 19.7355 16.429 19.6833 16.4551C19.6312 16.4813 19.5575 16.5145 19.5196 16.529C19.4816 16.5435 19.4066 16.5683 19.3527 16.5839C19.2989 16.5996 19.2412 16.6151 19.2245 16.6183C19.2078 16.6215 19.1499 16.6334 19.0958 16.6449C19.0417 16.6563 18.9325 16.6735 18.8531 16.6829L18.7088 16.7001L10.3544 16.7031ZM7.38205 14.5421H7.59945L7.60559 14.5261C7.60897 14.5173 7.61173 14.4966 7.61173 14.4802C7.61173 14.4637 7.6189 14.4038 7.62765 14.347C7.63641 14.2903 7.65697 14.1596 7.67333 14.0568C7.68969 13.9539 7.7142 13.7992 7.72778 13.713C7.74136 13.6268 7.75794 13.5164 7.76462 13.4678C7.7713 13.4191 7.77945 13.3793 7.78274 13.3793C7.78602 13.3793 7.80008 13.4008 7.81397 13.4271L7.83923 13.4749L7.89528 13.5314L7.95134 13.5878L8.02033 13.6155L8.08933 13.6431L8.17156 13.6537L8.25379 13.6644L8.35817 13.658L8.46255 13.6516L8.57556 13.6223L8.68857 13.5931L8.74924 13.5654C8.78261 13.5502 8.84176 13.517 8.88069 13.4916L8.95147 13.4455L9.01746 13.3795C9.05376 13.3433 9.10494 13.2851 9.13121 13.2503C9.15748 13.2155 9.17897 13.1844 9.17897 13.1813C9.17897 13.1782 9.19187 13.1567 9.20765 13.1334C9.22342 13.1102 9.2557 13.0456 9.27938 12.99C9.30306 12.9344 9.34007 12.8343 9.36162 12.7676L9.40081 12.6463L9.42107 12.5412C9.43221 12.4833 9.44654 12.3878 9.45292 12.3288L9.46451 12.2216L9.45781 12.1306L9.45112 12.0396L9.43002 11.9486L9.40892 11.8576L9.37477 11.7894L9.34061 11.7213L9.27464 11.6514L9.20867 11.5814L9.13062 11.5411L9.05258 11.5008L8.96663 11.4802L8.88069 11.4596L8.79474 11.4533L8.7088 11.447L8.61306 11.458L8.51732 11.469L8.43917 11.4889L8.36103 11.5089L8.29315 11.5403C8.25581 11.5576 8.20148 11.5869 8.17242 11.6055C8.14335 11.6241 8.11337 11.6455 8.10579 11.6531C8.09821 11.6606 8.08007 11.6746 8.06547 11.6842L8.03892 11.7015L8.05749 11.6127C8.0677 11.5639 8.07623 11.5182 8.07645 11.5113L8.07685 11.4986H7.89147H7.7061L7.67359 11.7034C7.65571 11.816 7.62749 11.99 7.61086 12.0901C7.59424 12.1902 7.56918 12.3404 7.55516 12.4238C7.54115 12.5072 7.51615 12.6551 7.49962 12.7524C7.48308 12.8497 7.45574 13.0044 7.43887 13.0962C7.422 13.188 7.39729 13.3222 7.38395 13.3945C7.37061 13.4668 7.34551 13.6033 7.32817 13.6978C7.31083 13.7924 7.28296 13.9425 7.26623 14.0315C7.24951 14.1205 7.2223 14.2615 7.20577 14.3449C7.18923 14.4284 7.17321 14.5068 7.17017 14.5194L7.16464 14.5421H7.38205ZM8.31799 13.3731L8.23357 13.3781L8.17839 13.3684L8.12321 13.3587L8.06717 13.3331L8.01112 13.3075L7.97197 13.2701L7.93282 13.2327L7.91022 13.1821C7.89779 13.1543 7.88182 13.1071 7.87474 13.0772L7.86186 13.0228L7.86702 12.9356L7.87218 12.8485L7.89823 12.712C7.91256 12.6369 7.93829 12.4958 7.9554 12.3985C7.97252 12.3012 7.99844 12.1586 8.01299 12.0816L8.03946 11.9417L8.09743 11.8935C8.12931 11.8669 8.1798 11.8314 8.20965 11.8145L8.2639 11.7837L8.33468 11.7618L8.40546 11.7399L8.49646 11.7345L8.58746 11.7292L8.66156 11.745L8.73566 11.7608L8.78795 11.7848L8.84024 11.8089L8.88409 11.853L8.92794 11.8971L8.9516 11.9438C8.96461 11.9695 8.98288 12.0197 8.99221 12.0555L9.00916 12.1205L9.00397 12.3126L8.99878 12.5047L8.97281 12.6182C8.95853 12.6807 8.93134 12.7763 8.91239 12.8306L8.87794 12.9294L8.83575 13.0093C8.81255 13.0533 8.77676 13.1127 8.75623 13.1414C8.73571 13.1701 8.70298 13.2072 8.68352 13.2239C8.66405 13.2406 8.63146 13.2667 8.61108 13.282L8.57403 13.3096L8.48822 13.3388L8.40241 13.368L8.31799 13.3731ZM10.4176 13.651L10.5288 13.6523L10.64 13.6422C10.7012 13.6366 10.8013 13.625 10.8625 13.6163C10.9237 13.6077 11.0293 13.5884 11.0973 13.5735L11.2209 13.5463L11.2271 13.5007C11.2305 13.4757 11.2444 13.401 11.2579 13.3349L11.2826 13.2147L11.2772 13.2092L11.2717 13.2038L11.2339 13.2221C11.2132 13.2321 11.1484 13.256 11.0901 13.2753L10.984 13.3102L10.8727 13.3318L10.7614 13.3533L10.5844 13.3537L10.4075 13.354L10.3468 13.3347C10.3134 13.324 10.2644 13.3045 10.2378 13.2913L10.1894 13.2674L10.1494 13.2313L10.1095 13.1952L10.0783 13.1407L10.0472 13.0863L10.0276 13.018L10.0081 12.9496L10.0079 12.8232L10.0078 12.6968L10.0252 12.584L10.0425 12.4712L10.1947 12.4641L10.3468 12.457L10.9093 12.4606L11.4717 12.4642L11.4887 12.3922C11.498 12.3526 11.5123 12.2707 11.5204 12.2102L11.5352 12.1002L11.5355 12.0077L11.5358 11.9152L11.5198 11.8462L11.5038 11.7771L11.4773 11.7314C11.4627 11.7063 11.4371 11.6698 11.4203 11.6504C11.4035 11.631 11.3735 11.6037 11.3536 11.5896C11.3337 11.5756 11.2947 11.552 11.2669 11.5373L11.2164 11.5104L11.128 11.4891L11.0397 11.4678L10.9309 11.4574L10.822 11.447L10.7209 11.4536L10.6198 11.4602L10.4985 11.4835L10.3771 11.5068L10.3013 11.5371C10.2596 11.5538 10.1959 11.5842 10.1598 11.6047C10.1236 11.6252 10.0736 11.6585 10.0485 11.6788C10.0235 11.6991 9.98018 11.7385 9.95225 11.7664C9.92432 11.7943 9.883 11.8444 9.86043 11.8778C9.83787 11.9112 9.80327 11.9703 9.78355 12.0092C9.76384 12.0482 9.73815 12.1028 9.72646 12.1306C9.71478 12.1584 9.69355 12.2153 9.67928 12.257C9.66501 12.2987 9.64259 12.3783 9.62945 12.4339C9.61631 12.4895 9.5983 12.5811 9.58943 12.6373L9.57331 12.7397L9.57346 12.8901L9.57361 13.0406L9.58897 13.1063C9.59743 13.1425 9.61359 13.1971 9.62489 13.2276C9.63619 13.2582 9.65708 13.3037 9.67132 13.3288C9.68556 13.3538 9.71597 13.3941 9.7389 13.4183C9.76183 13.4425 9.80334 13.4793 9.83114 13.5C9.85895 13.5207 9.90845 13.5498 9.94115 13.5647L10.0006 13.5917L10.0835 13.6118C10.1291 13.6228 10.1979 13.6358 10.2364 13.6408C10.2749 13.6457 10.3564 13.6503 10.4176 13.651ZM10.608 12.2266C10.3281 12.2266 10.0991 12.2246 10.0991 12.2222C10.0991 12.2197 10.111 12.1845 10.1256 12.1438C10.1402 12.1032 10.1659 12.0427 10.1826 12.0094L10.213 11.9488L10.2799 11.8823L10.3468 11.8158L10.4125 11.7843C10.4487 11.7671 10.4965 11.7482 10.5187 11.7425C10.541 11.7368 10.6047 11.7292 10.6603 11.7257L10.7614 11.7192L10.839 11.7292L10.9167 11.7392L10.9731 11.765L11.0295 11.7908L11.0605 11.8242C11.0775 11.8426 11.0978 11.8696 11.1056 11.8843L11.1197 11.911L11.129 11.9702L11.1384 12.0295L11.1277 12.1281L11.117 12.2266H10.608ZM13.633 13.6511L13.7443 13.6523L13.8706 13.6373C13.9401 13.6291 14.0326 13.6155 14.0762 13.607C14.1197 13.5986 14.1903 13.5818 14.2329 13.5698C14.2755 13.5577 14.3141 13.5447 14.3186 13.5408C14.3231 13.537 14.3352 13.4911 14.3454 13.4389C14.3556 13.3866 14.3685 13.3166 14.374 13.2833C14.3795 13.2499 14.3823 13.2208 14.3803 13.2186C14.3783 13.2164 14.3708 13.2193 14.3637 13.2249C14.3567 13.2305 14.307 13.2514 14.2535 13.2713L14.1561 13.3074L14.0175 13.3343L13.8788 13.3612L13.761 13.3571L13.6431 13.3531L13.5761 13.3299L13.5092 13.3067L13.4574 13.2614L13.4057 13.2162L13.3714 13.1537L13.337 13.0911L13.3207 13.0075L13.3043 12.9239L13.3044 12.8154L13.3046 12.7069L13.3244 12.5755L13.3443 12.444L13.3653 12.3732C13.3769 12.3343 13.3899 12.2888 13.3944 12.2721C13.3988 12.2555 13.4173 12.2077 13.4356 12.166C13.4538 12.1243 13.4863 12.0598 13.5079 12.0227L13.547 11.9553L13.5951 11.9055L13.6431 11.8557L13.694 11.8241L13.745 11.7925L13.8103 11.7724C13.8463 11.7613 13.9098 11.747 13.9515 11.7405L14.0274 11.7286L14.1386 11.7342L14.2498 11.7398L14.3813 11.7661L14.5127 11.7924L14.5662 11.8124C14.5956 11.8233 14.6209 11.8323 14.6225 11.8323C14.6241 11.8323 14.6311 11.7948 14.6382 11.7489C14.6452 11.703 14.6578 11.6275 14.666 11.5811C14.6743 11.5348 14.6791 11.4948 14.6767 11.4924C14.6742 11.4899 14.6347 11.4837 14.5889 11.4784C14.543 11.4732 14.4184 11.4639 14.3119 11.4578L14.1184 11.4467L13.9819 11.4572L13.8454 11.4676L13.7443 11.4889L13.6431 11.5101L13.578 11.5362C13.5422 11.5505 13.4898 11.5764 13.4615 11.5936C13.4332 11.6109 13.3971 11.6341 13.3814 11.6452C13.3657 11.6564 13.318 11.6998 13.2754 11.7417L13.1979 11.8179L13.1547 11.8812C13.1309 11.916 13.0898 11.9887 13.0633 12.0426L13.0151 12.1407L12.9782 12.2469C12.9579 12.3053 12.9295 12.4008 12.9152 12.4592L12.8891 12.5654L12.8796 12.6614L12.8702 12.7575L12.8703 12.8839L12.8704 13.0103L12.8799 13.0838L12.8895 13.1573L12.9197 13.2329L12.95 13.3086L12.985 13.3633L13.02 13.4179L13.0756 13.4727L13.1312 13.5274L13.1901 13.5585L13.2489 13.5896L13.3262 13.6111C13.3687 13.6229 13.4302 13.6365 13.4627 13.6412C13.4953 13.646 13.5718 13.6504 13.633 13.6511ZM15.2963 13.6474L15.4328 13.6434L15.5187 13.6214L15.6047 13.5994L15.6603 13.5732C15.6908 13.5587 15.7409 13.5301 15.7715 13.5097C15.8021 13.4893 15.8494 13.4505 15.8767 13.4234C15.904 13.3964 15.9444 13.3503 15.9666 13.3209C15.9887 13.2916 16.0082 13.2689 16.0098 13.2705C16.0115 13.2722 16.0064 13.3189 15.9985 13.3744C15.9907 13.4299 15.9841 13.5038 15.984 13.5386L15.9838 13.6018H16.1694H16.355L16.3606 13.4577L16.3663 13.3136L16.3928 13.1265C16.4074 13.0237 16.4309 12.8712 16.4451 12.7878C16.4593 12.7044 16.4839 12.5633 16.4999 12.4744C16.5158 12.3854 16.5411 12.2466 16.556 12.166L16.5832 12.0194L16.5841 11.8927L16.585 11.7661L16.5564 11.7075L16.5277 11.649L16.4889 11.6117L16.4501 11.5745L16.3863 11.5422L16.3226 11.5099L16.2275 11.4887L16.1325 11.4676L16.0017 11.4576L15.8709 11.4477L15.7024 11.4581C15.6097 11.4638 15.4793 11.4752 15.4126 11.4833L15.2912 11.498L15.2085 11.4983L15.1258 11.4986L15.1138 11.5568C15.1072 11.5887 15.0888 11.6647 15.0729 11.7256C15.0571 11.7865 15.0456 11.8377 15.0474 11.8395C15.0492 11.8413 15.0934 11.8313 15.1456 11.8172C15.1979 11.8032 15.3089 11.78 15.3923 11.7658L15.544 11.74L15.6805 11.7344L15.817 11.7288L15.9049 11.7442L15.9929 11.7596L16.0515 11.7885L16.1102 11.8175L16.1431 11.8665L16.1759 11.9155L16.1755 11.9927L16.175 12.0699L16.1576 12.1546L16.1402 12.2394L15.7764 12.2407L15.4125 12.242L15.2935 12.2747C15.228 12.2926 15.1555 12.3165 15.1323 12.3276C15.1092 12.3388 15.086 12.348 15.0809 12.348C15.0757 12.348 15.0368 12.3696 14.9943 12.396L14.9171 12.444L14.8563 12.5047C14.8228 12.538 14.7801 12.5881 14.7613 12.6159C14.7426 12.6437 14.7121 12.7018 14.6935 12.745L14.6599 12.8235L14.6444 12.9118L14.629 13.0001V13.0928V13.1854L14.6437 13.2626L14.6585 13.3397L14.6859 13.39C14.7009 13.4177 14.7286 13.4582 14.7473 13.4801L14.7813 13.5198L14.8418 13.5566L14.9023 13.5933L14.9715 13.6129C15.0096 13.6237 15.0675 13.6367 15.1003 13.6419L15.1598 13.6513L15.2963 13.6474ZM15.4226 13.3646L15.3418 13.3688L15.2882 13.3552C15.2587 13.3477 15.214 13.3309 15.1888 13.318L15.143 13.2945L15.1181 13.2648C15.1043 13.2484 15.0833 13.2163 15.0714 13.1934L15.0497 13.1518L15.0455 13.0546L15.0412 12.9574L15.0584 12.8985C15.0678 12.866 15.0899 12.8098 15.1075 12.7734L15.1395 12.7073L15.2008 12.6465L15.2621 12.5856L15.3272 12.5542L15.3923 12.5229L15.4732 12.5037L15.5541 12.4845H15.8069H16.0597L16.0756 12.4911L16.0916 12.4977L16.0782 12.577C16.0708 12.6207 16.0531 12.6996 16.0389 12.7524C16.0248 12.8053 15.9997 12.8829 15.9833 12.925C15.9669 12.9671 15.9535 13.0043 15.9535 13.0077C15.9535 13.0111 15.9369 13.0418 15.9166 13.0759L15.8796 13.1378L15.819 13.1979C15.7857 13.2309 15.7547 13.258 15.7502 13.258C15.7457 13.258 15.7253 13.2694 15.7048 13.2833L15.6675 13.3086L15.5855 13.3345L15.5035 13.3604L15.4226 13.3646ZM18.7139 13.651L18.8099 13.6522L18.9009 13.6374C18.951 13.6293 19.0147 13.6162 19.0425 13.6083C19.0703 13.6005 19.1203 13.58 19.1537 13.5629L19.2144 13.5319L19.2665 13.4859L19.3187 13.44L19.3737 13.3667C19.4039 13.3264 19.4313 13.2865 19.4345 13.2782L19.4404 13.263L19.4353 13.3136C19.4325 13.3414 19.4262 13.3869 19.4213 13.4147C19.4164 13.4425 19.4094 13.496 19.4057 13.5335L19.3991 13.6018H19.5974H19.7958V13.5335V13.4653L19.826 13.2074C19.8426 13.0656 19.8672 12.8768 19.8806 12.7878C19.894 12.6988 19.9147 12.5714 19.9266 12.5047C19.9385 12.438 19.9596 12.3174 19.9734 12.2367C19.9873 12.1561 20.0123 12.0151 20.029 11.9233C20.0458 11.8315 20.0726 11.6859 20.0885 11.5997C20.1045 11.5135 20.1294 11.3793 20.1438 11.3015C20.1582 11.2236 20.184 11.0871 20.2011 10.9981C20.2182 10.9091 20.2432 10.784 20.2567 10.7201C20.2701 10.6561 20.2811 10.6004 20.2811 10.5962V10.5886H20.0647H19.8483L19.8419 10.6518C19.8384 10.6866 19.8218 10.8015 19.8051 10.9071C19.7883 11.0128 19.7611 11.1811 19.7445 11.2812C19.7279 11.3813 19.7118 11.4784 19.7089 11.4969L19.7035 11.5307L19.6864 11.5234C19.677 11.5194 19.6261 11.5053 19.5733 11.492L19.4772 11.4679L19.3458 11.4577L19.2143 11.4474L19.1031 11.4578L18.9919 11.4681L18.8908 11.4937L18.7897 11.5193L18.6936 11.5661L18.5976 11.613L18.5268 11.6654L18.456 11.7178L18.3949 11.7833C18.3613 11.8193 18.3127 11.879 18.2869 11.9158L18.2401 11.9827L18.1852 12.0971C18.155 12.16 18.1182 12.2433 18.1034 12.2822C18.0887 12.3212 18.0627 12.4075 18.0457 12.474L18.0147 12.595L17.9995 12.7521L17.9842 12.9091L17.9957 13.0355L18.0072 13.1619L18.0207 13.2074C18.0281 13.2325 18.0438 13.277 18.0556 13.3065L18.0769 13.3601L18.1158 13.4128L18.1548 13.4655L18.1992 13.5019L18.2437 13.5383L18.3043 13.5684C18.3377 13.585 18.3937 13.6064 18.4287 13.616C18.4638 13.6256 18.5206 13.6371 18.5551 13.6416C18.5896 13.6461 18.661 13.6503 18.7139 13.651ZM18.8863 13.3641L18.8099 13.3681L18.7584 13.3589C18.73 13.3538 18.6847 13.3401 18.6576 13.3285L18.6083 13.3074L18.5669 13.2734L18.5255 13.2395L18.4947 13.1805L18.4639 13.1215L18.4498 13.0558L18.4358 12.99L18.437 12.8586L18.4382 12.7271L18.4545 12.6109L18.4708 12.4946L18.4961 12.4137C18.51 12.3692 18.5215 12.3272 18.5216 12.3204C18.5217 12.3136 18.5354 12.2772 18.5522 12.2395C18.5689 12.2019 18.5968 12.1437 18.6143 12.1104C18.6317 12.077 18.6643 12.025 18.6867 11.9948C18.7091 11.9646 18.749 11.9191 18.7753 11.8937C18.8017 11.8682 18.8436 11.8349 18.8685 11.8196L18.9138 11.7918L18.9933 11.7642L19.0728 11.7367L19.2396 11.7366H19.4065L19.5025 11.7633C19.5554 11.7779 19.6115 11.7949 19.6272 11.8011L19.6558 11.8122L19.6502 11.8399C19.6471 11.8552 19.6351 11.9223 19.6235 11.989C19.6119 12.0558 19.589 12.1832 19.5726 12.2721C19.5563 12.3611 19.5311 12.4953 19.5168 12.5704C19.5024 12.6455 19.4816 12.741 19.4705 12.7828C19.4595 12.8245 19.4439 12.8822 19.4359 12.9111C19.4278 12.94 19.4088 12.9901 19.3935 13.0224C19.3781 13.0546 19.3514 13.1015 19.3339 13.1265C19.3165 13.1516 19.287 13.1862 19.2684 13.2036C19.2498 13.2209 19.2096 13.2517 19.179 13.2721L19.1234 13.309L19.043 13.3345L18.9626 13.36L18.8863 13.3641ZM4.00503 13.6018H4.25071L4.26833 13.4931C4.27803 13.4333 4.29696 13.3184 4.31041 13.2378C4.32385 13.1571 4.34888 13.007 4.36602 12.9041C4.38317 12.8012 4.40886 12.6488 4.42313 12.5654C4.4374 12.4819 4.46006 12.3525 4.4735 12.2778C4.48694 12.2031 4.50048 12.1394 4.5036 12.1362L4.50926 12.1306H5.16986H5.83046L5.8378 12.1379L5.84513 12.1452L5.83368 12.2036C5.82738 12.2357 5.80874 12.3348 5.79227 12.4238C5.77579 12.5128 5.74809 12.6629 5.73071 12.7575C5.71333 12.852 5.68821 12.9862 5.67487 13.0558C5.66154 13.1253 5.63455 13.2709 5.61491 13.3793C5.59526 13.4878 5.57923 13.5822 5.57928 13.5891L5.57938 13.6018H5.82607H6.07276L6.08367 13.5386C6.08967 13.5038 6.09933 13.4412 6.10514 13.3995C6.11094 13.3578 6.12493 13.2691 6.13622 13.2024C6.14751 13.1356 6.17008 13.0037 6.18636 12.9091C6.20265 12.8146 6.22991 12.6531 6.24694 12.5502C6.26397 12.4473 6.28924 12.2972 6.30308 12.2165C6.31693 12.1359 6.34161 11.9994 6.35792 11.9132C6.37424 11.827 6.40141 11.6814 6.4183 11.5896C6.4352 11.4979 6.46051 11.3591 6.47455 11.2812C6.48859 11.2034 6.5142 11.0623 6.53145 10.9678C6.5487 10.8732 6.57048 10.7629 6.57985 10.7226L6.5969 10.6493H6.34712H6.09735L6.09056 10.6973C6.08682 10.7237 6.07475 10.7977 6.06374 10.8616C6.05273 10.9256 6.0327 11.0393 6.01923 11.1144C6.00576 11.1895 5.98114 11.3328 5.96453 11.4329C5.94791 11.533 5.92674 11.6655 5.91747 11.7274L5.90063 11.8398L5.53397 11.8473L5.16731 11.8547L4.8602 11.8474C4.69129 11.8434 4.55216 11.8393 4.55101 11.8383C4.54987 11.8374 4.55562 11.7981 4.5638 11.751C4.57197 11.704 4.58744 11.6222 4.59817 11.5694C4.6089 11.5166 4.62923 11.4119 4.64336 11.3368C4.65749 11.2618 4.6735 11.1685 4.67893 11.1296C4.68436 11.0906 4.69575 11.0258 4.70423 10.9855C4.71271 10.9452 4.72881 10.8602 4.74 10.7968C4.75119 10.7333 4.76311 10.6741 4.7665 10.6653L4.77265 10.6493H4.52489H4.27713L4.26127 10.7378C4.25254 10.7864 4.2409 10.8558 4.2354 10.892C4.22991 10.9281 4.21145 11.0441 4.19439 11.1498C4.17734 11.2555 4.15215 11.4124 4.13843 11.4986C4.12471 11.5848 4.09972 11.7418 4.08291 11.8475C4.06609 11.9531 4.03834 12.1169 4.02124 12.2115C4.00414 12.306 3.97939 12.4402 3.96623 12.5098C3.95307 12.5793 3.928 12.7112 3.91051 12.803C3.89302 12.8947 3.86751 13.0244 3.85382 13.0911C3.84012 13.1579 3.82498 13.2352 3.82018 13.263C3.81537 13.2908 3.79971 13.371 3.7854 13.4413C3.77108 13.5115 3.75936 13.5763 3.75936 13.5853V13.6018H4.00503ZM6.72474 13.6018H6.94222L6.94836 13.5858C6.95174 13.577 6.9545 13.5539 6.9545 13.5345C6.9545 13.5151 6.96818 13.4142 6.98489 13.3103C7.00161 13.2065 7.02922 13.0373 7.04627 12.9344C7.06331 12.8315 7.08847 12.6814 7.10219 12.6008C7.11591 12.5201 7.1403 12.3859 7.1564 12.3025C7.1725 12.2191 7.19722 12.0894 7.21132 12.0143C7.22543 11.9392 7.25317 11.7964 7.27297 11.6969C7.29277 11.5974 7.31144 11.512 7.31446 11.5071L7.31994 11.4982L7.10001 11.501L6.88007 11.5037L6.86175 11.6351C6.85168 11.7074 6.82965 11.8508 6.8128 11.9536C6.79596 12.0565 6.77047 12.2135 6.75618 12.3025C6.74188 12.3914 6.71695 12.5348 6.70077 12.621C6.68459 12.7072 6.6598 12.8391 6.64568 12.9142C6.63155 12.9893 6.60621 13.1212 6.58936 13.2074C6.57251 13.2936 6.5499 13.4074 6.53912 13.4602C6.52833 13.513 6.51675 13.5665 6.51338 13.579L6.50725 13.6018H6.72474ZM11.8114 13.6018H12.0273L12.0338 13.5104C12.0374 13.4602 12.0496 13.3589 12.0609 13.2854C12.0723 13.2119 12.0956 13.0654 12.1126 12.9597C12.1297 12.854 12.1615 12.6782 12.1832 12.5689C12.2049 12.4596 12.2294 12.3509 12.2377 12.3275C12.246 12.304 12.2528 12.2785 12.2528 12.2709C12.2528 12.2633 12.269 12.2218 12.2889 12.1787C12.3087 12.1355 12.3457 12.0695 12.371 12.0319L12.4171 11.9636L12.4788 11.9065L12.5405 11.8494L12.6165 11.813L12.6926 11.7767L12.8089 11.7773L12.9252 11.7779L12.9823 11.795C13.0138 11.8044 13.0422 11.8121 13.0455 11.8121C13.0489 11.8121 13.0516 11.8013 13.0516 11.7882C13.0516 11.775 13.0629 11.7084 13.0768 11.6402C13.0907 11.5719 13.1021 11.5132 13.1021 11.5097C13.1021 11.5061 13.0691 11.4932 13.0288 11.481C12.9885 11.4687 12.9328 11.4559 12.905 11.4524L12.8544 11.4462L12.7887 11.4578C12.7525 11.4642 12.6988 11.4783 12.6692 11.4892C12.6397 11.5 12.5909 11.5247 12.5608 11.5439C12.5307 11.5631 12.484 11.6006 12.4569 11.6272C12.4297 11.6538 12.3841 11.7074 12.3555 11.7463C12.3269 11.7853 12.297 11.8262 12.289 11.8373L12.2745 11.8576L12.2833 11.8171C12.2882 11.7949 12.3016 11.7221 12.3133 11.6553C12.3249 11.5886 12.3368 11.526 12.3398 11.5163L12.3451 11.4986H12.1524H11.9596V11.523C11.9596 11.5364 11.9482 11.6172 11.9343 11.7025C11.9204 11.7878 11.8974 11.9304 11.8833 12.0193C11.8692 12.1083 11.8441 12.263 11.8276 12.3631C11.8111 12.4632 11.786 12.6066 11.7719 12.6816C11.7578 12.7567 11.7327 12.8887 11.7161 12.9749C11.6996 13.0611 11.6721 13.2021 11.6551 13.2883C11.6381 13.3745 11.6177 13.4763 11.6099 13.5145C11.602 13.5527 11.5956 13.588 11.5956 13.5929V13.6018L11.8114 13.6018ZM16.936 13.6018H17.1567V13.5342V13.4667L17.1822 13.2991C17.1962 13.207 17.2192 13.0611 17.2335 12.9749C17.2477 12.8887 17.2654 12.7795 17.2728 12.7322C17.2803 12.6849 17.3 12.5826 17.3167 12.5047C17.3333 12.4268 17.3541 12.3427 17.3629 12.3176C17.3717 12.2926 17.3789 12.2664 17.379 12.2593C17.3791 12.2522 17.3979 12.2068 17.4208 12.1583L17.4625 12.0702L17.5175 11.9972L17.5724 11.9241L17.6326 11.8789C17.6657 11.8541 17.7189 11.821 17.7508 11.8056L17.8089 11.7775L17.9353 11.7783L18.0617 11.7792L18.1114 11.7952L18.1612 11.8111L18.1696 11.806L18.178 11.8008L18.1784 11.7685C18.1786 11.7508 18.1894 11.6847 18.2024 11.6218L18.2261 11.5073L18.1995 11.4969C18.1849 11.4912 18.1502 11.4793 18.1223 11.4706L18.0718 11.4547L17.9808 11.4549L17.8898 11.4551L17.8156 11.4812L17.7415 11.5073L17.6858 11.5409L17.6301 11.5745L17.5577 11.6503L17.4853 11.7261L17.4464 11.785C17.425 11.8173 17.4062 11.8423 17.4046 11.8406C17.4029 11.8388 17.4146 11.7714 17.4304 11.6907C17.4462 11.6101 17.4594 11.5339 17.4596 11.5214L17.4601 11.4986H17.273H17.0859V11.5051C17.0859 11.5086 17.0766 11.5735 17.0652 11.6492C17.0538 11.7249 17.0309 11.871 17.0144 11.9739C16.9978 12.0767 16.9706 12.2428 16.9539 12.3429C16.9373 12.443 16.9122 12.5863 16.8981 12.6614C16.8841 12.7365 16.8591 12.8685 16.8427 12.9546C16.8263 13.0408 16.7993 13.1796 16.7827 13.263C16.7661 13.3465 16.7442 13.4568 16.7339 13.5082L16.7153 13.6018L16.936 13.6018ZM7.15239 11.1344L7.21379 11.1346L7.26259 11.118L7.31139 11.1014L7.35458 11.0576L7.39777 11.0137L7.42052 10.9554L7.44327 10.897L7.44408 10.8111L7.44489 10.7251L7.42467 10.6916L7.40445 10.658L7.36924 10.6362L7.33403 10.6144H7.25802L7.182 10.6144L7.13025 10.6376L7.0785 10.6607L7.04846 10.6929L7.01842 10.7251L6.99482 10.7807L6.97123 10.8363L6.96677 10.923L6.96231 11.0096L6.98428 11.0526L7.00624 11.0957L7.04862 11.1149L7.091 11.1342L7.15239 11.1344Z" fill="#B3131B"/>
</svg>
