<?xml version="1.0" encoding="UTF-8" standalone="no"?>
<svg
   viewBox="0 0 20 20"
   version="1.1"
   id="svg4"
   sodipodi:docname="luizaSeg.svg"
   xmlns:inkscape="http://www.inkscape.org/namespaces/inkscape"
   xmlns:sodipodi="http://sodipodi.sourceforge.net/DTD/sodipodi-0.dtd"
   xmlns="http://www.w3.org/2000/svg"
   xmlns:svg="http://www.w3.org/2000/svg">
  <defs
     id="defs8" />
  <sodipodi:namedview
     id="namedview6"
     pagecolor="#ffffff"
     bordercolor="#000000"
     borderopacity="0.25"
     inkscape:showpageshadow="2"
     inkscape:pageopacity="0.0"
     inkscape:pagecheckerboard="0"
     inkscape:deskcolor="#d1d1d1" />
  <path
     fill-rule="evenodd"
     clip-rule="evenodd"
     d="M18.5792 4.27726L10.1002 0.0607877C9.96195 -0.00833481 9.77763 -0.0313757 9.63938 0.0607877L1.18339 4.25422C0.999064 4.34639 0.860819 4.53071 0.88386 4.76112C1.11427 8.53982 2.08198 11.5812 3.57964 14.0927C5.10034 16.5811 7.17401 18.4704 9.5933 19.922C9.75459 20.0142 9.96195 20.0372 10.1463 19.922C12.5886 18.4704 14.6392 16.5811 16.1599 14.0927C17.6806 11.6043 18.6484 8.56286 18.8788 4.78416C18.8788 4.57679 18.7866 4.36943 18.5792 4.27726ZM8.90224 12.7448C8.93104 12.7505 8.95985 12.7563 8.99441 12.7563H10.7225C11.022 12.7563 11.2524 12.5259 11.2524 12.2494C11.2524 12.1803 11.2294 12.1112 11.2063 12.042L10.6764 10.4983C10.9529 10.36 11.2063 10.1296 11.3676 9.87619C11.5289 9.5997 11.6441 9.25409 11.6441 8.90847C11.6441 8.40158 11.4367 7.9638 11.1142 7.64123C10.7916 7.31866 10.3308 7.11129 9.84692 7.11129C9.34002 7.11129 8.90224 7.31866 8.57967 7.64123C8.2571 7.9638 8.04973 8.40158 8.04973 8.90847C8.04973 9.25409 8.16494 9.5997 8.34926 9.87619C8.51055 10.1296 8.764 10.36 9.04049 10.4983L8.48751 12.0651C8.39534 12.3416 8.53359 12.6411 8.81008 12.7333C8.84464 12.7333 8.87344 12.739 8.90224 12.7448Z"
     fill="#0086ff"
     id="path2" />
</svg>
